<svg width="32" height="32" viewBox="0 0 32 32" fill="none" xmlns="http://www.w3.org/2000/svg">
<path fillRule="evenodd" clipRule="evenodd" d="M11 9C11 7.67392 11.5268 6.40215 12.4645 5.46447C13.4021 4.52678 14.6739 4 16 4C17.3261 4 18.5979 4.52678 19.5355 5.46447C20.4732 6.40215 21 7.67392 21 9C21 10.3261 20.4732 11.5979 19.5355 12.5355C18.5979 13.4732 17.3261 14 16 14C14.6739 14 13.4021 13.4732 12.4645 12.5355C11.5268 11.5979 11 10.3261 11 9ZM21 13C21 11.9391 21.4214 10.9217 22.1716 10.1716C22.9217 9.42143 23.9391 9 25 9C26.0609 9 27.0783 9.42143 27.8284 10.1716C28.5786 10.9217 29 11.9391 29 13C29 14.0609 28.5786 15.0783 27.8284 15.8284C27.0783 16.5786 26.0609 17 25 17C23.9391 17 22.9217 16.5786 22.1716 15.8284C21.4214 15.0783 21 14.0609 21 13ZM3 13C3 11.9391 3.42143 10.9217 4.17157 10.1716C4.92172 9.42143 5.93913 9 7 9C8.06087 9 9.07828 9.42143 9.82843 10.1716C10.5786 10.9217 11 11.9391 11 13C11 14.0609 10.5786 15.0783 9.82843 15.8284C9.07828 16.5786 8.06087 17 7 17C5.93913 17 4.92172 16.5786 4.17157 15.8284C3.42143 15.0783 3 14.0609 3 13ZM8.41333 20.156C9.2266 18.8814 10.3481 17.8323 11.6742 17.1059C13.0002 16.3795 14.488 15.9991 16 16C17.2664 15.9988 18.5188 16.2652 19.6752 16.7815C20.8316 17.2979 21.8658 18.0527 22.7103 18.9965C23.5548 19.9403 24.1904 21.0518 24.5755 22.2582C24.9607 23.4646 25.0867 24.7388 24.9453 25.9973C24.928 26.1537 24.8741 26.3038 24.7879 26.4353C24.7018 26.5669 24.5857 26.6763 24.4493 26.7547C21.8781 28.23 18.9645 29.0043 16 29C12.9267 29 10.04 28.184 7.55067 26.7547C7.41425 26.6763 7.29824 26.5669 7.21206 26.4353C7.12587 26.3038 7.07195 26.1537 7.05467 25.9973C6.83074 23.9528 7.30995 21.893 8.41333 20.1573V20.156Z" fill="#05050F"/>
<path d="M6.77611 19.0059C5.46111 21.0357 4.84845 23.4409 5.03211 25.8525C4.23145 25.7311 3.44398 25.5347 2.68011 25.2659L2.52677 25.2125C2.38997 25.164 2.27018 25.0768 2.18191 24.9615C2.09364 24.8463 2.04068 24.7079 2.02944 24.5632L2.01611 24.4019C1.96225 23.7325 2.04378 23.0591 2.25585 22.4219C2.46791 21.7847 2.80616 21.1968 3.25041 20.6932C3.69465 20.1896 4.2358 19.7806 4.84155 19.4907C5.44729 19.2008 6.10523 19.0359 6.77611 19.0059ZM26.9681 25.8525C27.1518 23.4409 26.5391 21.0357 25.2241 19.0059C25.895 19.0359 26.5529 19.2008 27.1587 19.4907C27.7644 19.7806 28.3056 20.1896 28.7498 20.6932C29.1941 21.1968 29.5323 21.7847 29.7444 22.4219C29.9564 23.0591 30.038 23.7325 29.9841 24.4019L29.9708 24.5632C29.9593 24.7077 29.9062 24.8458 29.818 24.9608C29.7297 25.0758 29.61 25.1627 29.4734 25.2112L29.3201 25.2645C28.5641 25.5312 27.7788 25.7299 26.9681 25.8525Z" fill="#05050F"/>
</svg>
