<svg width="22" height="28" viewBox="0 0 22 28" fill="none" xmlns="http://www.w3.org/2000/svg">
<path fillRule="evenodd" clipRule="evenodd" d="M4.99883 6C4.99883 4.4087 5.63097 2.88258 6.75619 1.75736C7.8814 0.632141 9.40753 0 10.9988 0C12.5901 0 14.1162 0.632141 15.2415 1.75736C16.3667 2.88258 16.9988 4.4087 16.9988 6C16.9988 7.5913 16.3667 9.11742 15.2415 10.2426C14.1162 11.3679 12.5901 12 10.9988 12C9.40753 12 7.8814 11.3679 6.75619 10.2426C5.63097 9.11742 4.99883 7.5913 4.99883 6ZM0.000159205 24.8067C0.0451196 21.9193 1.22368 19.1654 3.28144 17.1394C5.3392 15.1135 8.11111 13.9779 10.9988 13.9779C13.8865 13.9779 16.6585 15.1135 18.7162 17.1394C20.774 19.1654 21.9525 21.9193 21.9975 24.8067C22.001 25.001 21.9477 25.1922 21.8442 25.3568C21.7407 25.5214 21.5915 25.6522 21.4148 25.7333C18.147 27.2316 14.5937 28.0049 10.9988 28C7.28416 28 3.75483 27.1893 0.582826 25.7333C0.40614 25.6522 0.256926 25.5214 0.153442 25.3568C0.0499577 25.1922 -0.00330911 25.001 0.000159205 24.8067Z" fill="#232323"/>
</svg>
