<svg width="20" height="20" viewBox="0 0 20 20" fill="none" xmlns="http://www.w3.org/2000/svg">
<g clip-path="url(#clip0_5204_6383)">
<path fill-rule="evenodd" clip-rule="evenodd" d="M0.8125 10C0.8125 10.354 1.09945 10.641 1.45352 10.641H3.19242C3.49594 13.9055 6.09453 16.504 9.35898 16.8076V18.5465C9.35898 18.9005 9.64601 19.1875 10 19.1875C10.354 19.1875 10.641 18.9005 10.641 18.5465V16.8076C13.9055 16.504 16.504 13.9055 16.8076 10.641H18.5465C18.9005 10.641 19.1875 10.354 19.1875 10C19.1875 9.64601 18.9005 9.35898 18.5465 9.35898H16.8076C16.504 6.09453 13.9055 3.49594 10.641 3.19242V1.45352C10.641 1.09945 10.354 0.8125 10 0.8125C9.64601 0.8125 9.35898 1.09945 9.35898 1.45352V3.19242C6.09453 3.49594 3.49594 6.09453 3.19242 9.35898H1.45352C1.09945 9.35898 0.8125 9.64601 0.8125 10ZM6.79508 10C6.79508 8.22992 8.22992 6.79508 10 6.79508C11.7701 6.79508 13.205 8.22992 13.205 10C13.205 11.7701 11.7701 13.205 10 13.205C8.22992 13.205 6.79508 11.7701 6.79508 10Z" fill="#232323"/>
<path d="M8.07617 10.0001C8.07617 8.93816 8.93719 8.07715 9.99914 8.07715C11.0611 8.07715 11.9221 8.93816 11.9221 10.0001C11.9221 11.0621 11.0611 11.9231 9.99914 11.9231C8.93719 11.9231 8.07617 11.0621 8.07617 10.0001Z" fill="#232323"/>
</g>
<defs>
<clipPath id="clip0_5204_6383">
<rect width="20" height="20" fill="white"/>
</clipPath>
</defs>
</svg>
