<svg width="170" height="40" viewBox="0 0 170 40" fill="none" xmlns="http://www.w3.org/2000/svg">
<path fillRule="evenodd" clipRule="evenodd" d="M0 20C11.0457 20 20 11.0457 20 0C20 11.0457 28.9543 20 40 20C28.9543 20 20 28.9543 20 40C20 28.9543 11.0457 20 0 20Z" fill="#4C3DFF"/>
<path d="M56.7733 29.54C55.3867 29.54 54.1422 29.3533 53.04 28.98C51.9378 28.6067 50.9956 28.0378 50.2133 27.2733C49.4489 26.5089 48.8622 25.5756 48.4533 24.4733C48.0622 23.3533 47.8667 22.0467 47.8667 20.5533C47.8667 19.0244 48.0711 17.6822 48.48 16.5267C48.8889 15.3711 49.4756 14.3933 50.24 13.5933C51.0222 12.7933 51.9378 12.1978 52.9867 11.8067C54.0355 11.3978 55.2 11.1933 56.48 11.1933C57.4933 11.1933 58.4178 11.3178 59.2533 11.5667C60.1067 11.8156 60.8444 12.1889 61.4667 12.6867C62.0889 13.1667 62.5689 13.7533 62.9067 14.4467C63.2622 15.1222 63.4489 15.8956 63.4667 16.7667L59.4933 17.86C59.4933 17.1311 59.3333 16.5356 59.0133 16.0733C58.7111 15.6111 58.32 15.2644 57.84 15.0333C57.3778 14.7844 56.8711 14.66 56.32 14.66C55.8755 14.66 55.4133 14.7578 54.9333 14.9533C54.4711 15.1311 54.0444 15.4422 53.6533 15.8867C53.2622 16.3133 52.9511 16.8822 52.72 17.5933C52.4889 18.3044 52.3733 19.1933 52.3733 20.26C52.3733 21.6467 52.5689 22.7667 52.96 23.62C53.3511 24.4733 53.8933 25.1044 54.5867 25.5133C55.28 25.9044 56.0444 26.1 56.88 26.1C57.8044 26.1 58.5156 25.9044 59.0133 25.5133C59.5289 25.1044 59.8933 24.5978 60.1067 23.9933C60.32 23.3889 60.4356 22.7756 60.4533 22.1533L64.1867 22.74C64.1689 23.7 64.0267 24.5978 63.76 25.4333C63.4933 26.2689 63.0667 26.9978 62.48 27.62C61.9111 28.2244 61.1555 28.6956 60.2133 29.0333C59.2711 29.3711 58.1244 29.54 56.7733 29.54Z" fill="#05050F"/>
<path d="M69.8819 29.54C69.0996 29.54 68.4063 29.3889 67.8019 29.0867C67.1974 28.7667 66.7263 28.3133 66.3885 27.7267C66.0508 27.1222 65.8819 26.3933 65.8819 25.54C65.8819 24.74 66.033 24.0822 66.3352 23.5667C66.6552 23.0333 67.1085 22.6156 67.6952 22.3133C68.2997 21.9933 69.0196 21.7356 69.8552 21.54C70.6908 21.3267 71.6419 21.14 72.7085 20.98C73.2241 20.8911 73.6508 20.8111 73.9885 20.74C74.3441 20.6511 74.6108 20.5178 74.7885 20.34C74.9663 20.1622 75.0552 19.9044 75.0552 19.5667C75.0552 19.1222 74.8952 18.74 74.5752 18.42C74.2552 18.1 73.7396 17.94 73.0285 17.94C72.5308 17.94 72.0774 18.0289 71.6685 18.2067C71.2774 18.3844 70.9396 18.6422 70.6552 18.98C70.3708 19.3178 70.1574 19.7267 70.0152 20.2067L66.2285 19.0867C66.4596 18.34 66.7796 17.6911 67.1885 17.14C67.6152 16.5889 68.1219 16.1356 68.7085 15.78C69.2952 15.4067 69.9619 15.14 70.7085 14.98C71.473 14.8022 72.2819 14.7133 73.1352 14.7133C74.5574 14.7133 75.713 14.9444 76.6019 15.4067C77.5085 15.8511 78.1752 16.5533 78.6019 17.5133C79.0463 18.4556 79.2685 19.6733 79.2685 21.1667V23.3267C79.2685 23.9667 79.2774 24.6156 79.2952 25.2733C79.3308 25.9133 79.3663 26.5622 79.4019 27.22C79.4552 27.86 79.5174 28.5089 79.5885 29.1667H75.8019C75.7308 28.7578 75.6596 28.2689 75.5885 27.7C75.5174 27.1133 75.4641 26.5178 75.4285 25.9133H74.9219C74.673 26.5889 74.3085 27.2111 73.8285 27.78C73.3663 28.3311 72.7974 28.7667 72.1219 29.0867C71.4641 29.3889 70.7174 29.54 69.8819 29.54ZM71.8285 26.5C72.1485 26.5 72.4685 26.4467 72.7885 26.34C73.1263 26.2156 73.4463 26.0556 73.7485 25.86C74.0508 25.6467 74.3263 25.3889 74.5752 25.0867C74.8241 24.7844 75.0108 24.4556 75.1352 24.1L75.0819 21.9933L75.6685 22.1267C75.3308 22.34 74.9574 22.5089 74.5485 22.6333C74.1396 22.7578 73.7219 22.8556 73.2952 22.9267C72.8863 22.9978 72.4774 23.0778 72.0685 23.1667C71.6774 23.2378 71.3219 23.3356 71.0019 23.46C70.6996 23.5844 70.4596 23.7533 70.2819 23.9667C70.1041 24.18 70.0152 24.4733 70.0152 24.8467C70.0152 25.3444 70.1841 25.7444 70.5219 26.0467C70.8596 26.3489 71.2952 26.5 71.8285 26.5Z" fill="#05050F"/>
<path d="M82.4346 29.1667V15.0867H85.9546L86.0346 19.86H86.5679C86.6924 18.6156 86.9235 17.6289 87.2612 16.9C87.6168 16.1533 88.1146 15.6111 88.7546 15.2733C89.4124 14.9356 90.2212 14.7667 91.1812 14.7667C91.3235 14.7667 91.4835 14.7756 91.6612 14.7933C91.839 14.7933 92.0435 14.8111 92.2746 14.8467L92.1146 19.4333C91.8301 19.2911 91.519 19.2022 91.1812 19.1667C90.8612 19.1133 90.5768 19.0867 90.3279 19.0867C89.6346 19.0867 89.0301 19.22 88.5146 19.4867C88.0168 19.7533 87.6168 20.1622 87.3146 20.7133C87.0301 21.2644 86.8435 21.9578 86.7546 22.7933V29.1667H82.4346Z" fill="#05050F"/>
<path d="M101.029 29.54C99.8556 29.54 98.8067 29.3889 97.8823 29.0867C96.9578 28.7667 96.1667 28.3044 95.5089 27.7C94.8689 27.0956 94.3801 26.3489 94.0423 25.46C93.7045 24.5711 93.5356 23.5489 93.5356 22.3933C93.5356 21.2733 93.6956 20.2422 94.0156 19.3C94.3534 18.3578 94.8245 17.5489 95.4289 16.8733C96.0512 16.18 96.8067 15.6467 97.6956 15.2733C98.6023 14.9 99.6156 14.7133 100.736 14.7133C101.873 14.7133 102.869 14.9 103.722 15.2733C104.593 15.6289 105.305 16.1622 105.856 16.8733C106.424 17.5844 106.842 18.4556 107.109 19.4867C107.376 20.5 107.465 21.6644 107.376 22.98L97.6724 23.06L97.5385 20.82L104.922 20.74L103.402 21.78C103.527 20.8911 103.473 20.1711 103.242 19.62C103.011 19.0511 102.673 18.6422 102.229 18.3933C101.785 18.1267 101.305 17.9933 100.789 17.9933C100.167 17.9933 99.6156 18.1622 99.1356 18.5C98.6734 18.8378 98.3089 19.3267 98.0423 19.9667C97.7756 20.6067 97.6423 21.3889 97.6423 22.3133C97.6423 23.7711 97.9534 24.8289 98.5756 25.4867C99.2156 26.1444 100.025 26.4733 101.002 26.4733C101.482 26.4733 101.882 26.4111 102.202 26.2867C102.522 26.1444 102.78 25.9756 102.976 25.78C103.189 25.5667 103.349 25.3356 103.456 25.0867C103.58 24.8378 103.678 24.5978 103.749 24.3667L107.482 25.1667C107.34 25.8244 107.109 26.42 106.789 26.9533C106.487 27.4867 106.069 27.9489 105.536 28.34C105.02 28.7311 104.389 29.0244 103.642 29.22C102.913 29.4333 102.042 29.54 101.029 29.54Z" fill="#05050F"/>
<path d="M121.64 29.1667V11.5667H125.933V29.1667H121.64ZM110.173 29.1667V11.5667H114.467V29.1667H110.173ZM114.467 21.9184V18.5533H121.64V21.9184H114.467Z" fill="#05050F"/>
<path d="M129.652 29.1667V11.5667H136.079L140.666 24.2333H140.799L145.279 11.5667H151.412V29.1667H147.359L147.599 15.94H147.306L142.212 29.1667H138.692L133.706 15.94H133.412L133.652 29.1667H129.652Z" fill="#05050F"/>
<path d="M162.108 29.54C160.97 29.54 159.939 29.4333 159.015 29.22C158.09 29.0067 157.29 28.6867 156.615 28.26C155.939 27.8156 155.406 27.2556 155.015 26.58C154.623 25.9044 154.392 25.1222 154.321 24.2333L158.081 22.98C158.135 23.7267 158.348 24.3489 158.721 24.8467C159.095 25.3444 159.592 25.7178 160.215 25.9667C160.855 26.1978 161.566 26.3133 162.348 26.3133C163.095 26.3133 163.717 26.2244 164.215 26.0467C164.73 25.8511 165.112 25.6111 165.361 25.3267C165.628 25.0244 165.761 24.7044 165.761 24.3667C165.761 23.9756 165.592 23.6556 165.255 23.4067C164.917 23.14 164.455 22.9178 163.868 22.74C163.281 22.5444 162.597 22.3578 161.815 22.18C160.926 21.9667 160.055 21.7356 159.201 21.4867C158.348 21.2378 157.575 20.9178 156.881 20.5267C156.188 20.1178 155.637 19.6022 155.228 18.98C154.837 18.34 154.641 17.54 154.641 16.58C154.641 15.4956 154.917 14.5533 155.468 13.7533C156.019 12.9533 156.828 12.3311 157.895 11.8867C158.961 11.4244 160.277 11.1933 161.841 11.1933C163.388 11.1933 164.703 11.4156 165.788 11.86C166.872 12.3044 167.708 12.9267 168.295 13.7267C168.881 14.5089 169.201 15.4244 169.255 16.4733L165.415 17.5667C165.415 17.0511 165.326 16.5978 165.148 16.2067C164.988 15.8156 164.757 15.4956 164.455 15.2467C164.152 14.98 163.779 14.7844 163.335 14.66C162.89 14.5178 162.383 14.4467 161.815 14.4467C161.139 14.4467 160.561 14.5267 160.081 14.6867C159.619 14.8467 159.272 15.06 159.041 15.3267C158.81 15.5756 158.695 15.8689 158.695 16.2067C158.695 16.6333 158.872 16.9889 159.228 17.2733C159.601 17.54 160.099 17.7711 160.721 17.9667C161.361 18.1444 162.063 18.3222 162.828 18.5C163.592 18.66 164.383 18.8644 165.201 19.1133C166.019 19.3444 166.783 19.6556 167.495 20.0467C168.206 20.4378 168.775 20.9711 169.201 21.6467C169.646 22.3044 169.868 23.14 169.868 24.1533C169.868 25.2378 169.575 26.1889 168.988 27.0067C168.419 27.8067 167.557 28.4289 166.401 28.8733C165.246 29.3178 163.815 29.54 162.108 29.54Z" fill="#05050F"/>
</svg>
